<?xml version="1.0" standalone="no"?>
<!DOCTYPE svg PUBLIC "-//W3C//DTD SVG 20010904//EN"
 "http://www.w3.org/TR/2001/REC-SVG-20010904/DTD/svg10.dtd">
<svg version="1.0" xmlns="http://www.w3.org/2000/svg"
 width="1104.000000pt" height="1104.000000pt" viewBox="0 0 1104.000000 1104.000000"
 preserveAspectRatio="xMidYMid meet">
<metadata>
Created by potrace 1.11, written by Peter Selinger 2001-2013
</metadata>
<g transform="translate(0.000000,1104.000000) scale(0.100000,-0.100000)"
fill="#000000" stroke="none">
<path d="M163 9856 c-99 -31 -153 -111 -153 -225 0 -74 -7 -52 245 -751 86
-239 201 -559 255 -710 54 -151 158 -439 230 -640 72 -201 176 -489 230 -640
54 -151 160 -446 235 -655 165 -459 371 -1032 505 -1405 54 -151 158 -439 230
-640 72 -201 176 -489 230 -640 410 -1146 671 -1863 695 -1910 73 -144 158
-246 234 -278 26 -12 76 -26 112 -31 87 -15 1471 -15 1559 0 156 25 240 100
345 309 31 61 557 1526 1735 4825 98 275 382 1069 631 1765 249 696 458 1292
465 1325 23 102 -3 194 -70 253 -72 63 -61 62 -907 62 -640 0 -780 -2 -845
-15 -149 -28 -228 -87 -291 -217 -32 -66 -106 -289 -968 -2943 -79 -242 -232
-712 -340 -1045 -108 -333 -266 -819 -351 -1080 -85 -261 -157 -482 -160 -490
-8 -20 -20 15 -254 730 -111 338 -252 770 -315 960 -62 190 -204 622 -315 960
-111 338 -252 770 -315 960 -63 190 -204 622 -315 960 -300 917 -308 940 -346
1010 -66 120 -133 168 -273 194 -72 14 -194 16 -880 15 -624 0 -805 -3 -838
-13z"/>
<path d="M9121 7364 c-64 -17 -103 -44 -141 -95 -56 -78 -55 -61 -55 -1114 0
-1110 -5 -1048 83 -1136 87 -87 44 -83 955 -87 698 -2 806 -1 859 13 82 21
123 48 154 101 61 104 59 69 59 1109 0 896 -1 954 -19 1018 -25 91 -61 138
-133 173 l-58 29 -825 2 c-695 2 -833 0 -879 -13z"/>
<path d="M9145 3610 c-87 -21 -152 -66 -182 -125 -42 -81 -43 -87 -43 -1096 0
-950 0 -968 21 -1034 27 -89 83 -146 166 -172 54 -17 117 -18 878 -18 l820 0
57 23 c71 29 130 91 155 164 17 49 18 118 21 1005 2 814 0 962 -12 1023 -28
133 -83 194 -201 225 -51 13 -168 15 -855 14 -437 -1 -808 -4 -825 -9z"/>
</g>
</svg>
